# xmcd
#
# Track frame offsets: 
#        150
#        18930
#        40695
#        52727
#        66930
#        80825
#        95092
#        118702
#        133627
#        155337
#        170425
#        184425
#        198995
#
# Disc length: 2877 seconds
#
# Revision: 3
# Processed by: cddbd v1.5.1PL0 Copyright (c) Steve Scherf et al.
# Submitted via: ExactAudioCopy v0.95a5
#
DISCID=ae0b3b0d
DTITLE=Various Artist - CMA Awards Collection
DYEAR=1997
DGENRE=Country
TTITLE0=Kathy Mattea - 455 Rocket
TTITLE1=Wynonna - To Be Loved By You
TTITLE2=Mindy McCready - A Girl's Gotta Do (What A Girl's Gotta Do)
TTITLE3=Alison Krauss and Union Station - So Long, So Wrong
TTITLE4=Vince Gill - A Little More Love
TTITLE5=Faith Hill - Let's Go To Vegas
TTITLE6=Steve Earle - Taney Town
TTITLE7=Mary Chapin Carpenter - The Better To Dream Of You
TTITLE8=Tim McGraw - Everywhere
TTITLE9=LeAnn Rimes - The Light In Your Eyes
TTITLE10=The Delevantes - Suitcase of Leather
TTITLE11=Martina McBride - Safe In The Arms Of Love
TTITLE12=Trisha Yearwood - A Lover Is Forever
EXTD=
EXTT0=
EXTT1=
EXTT2=
EXTT3=
EXTT4=
EXTT5=
EXTT6=
EXTT7=
EXTT8=
EXTT9=
EXTT10=
EXTT11=
EXTT12=
PLAYORDER=
